<svg xmlns="http://www.w3.org/2000/svg" viewBox="0 0 468 180" role="img" aria-label="WPS">
  <style>
    .logo-blue { fill: #006eb6; }
    .logo-white { fill: #ffffff; }
  </style>
  <path class="logo-blue" d="M439.58,79.44c5.97-1.98,10.33-7.55,10.33-14.18V41.98c0-8.24-6.71-14.97-14.95-15l-82.72-0.21
	c-20.41,0-33.44,9.17-40.41,20.17c-8.71-14.53-24.4-20.01-37.86-20.01l-85.38-0.14c-2.69,0-5.31,0.78-7.61,2.13
	c-2.26-1.33-4.81-2.13-7.49-2.15l-27.83-0.12c-4.02-0.01-7.8,1.53-10.65,4.36c-1.6,1.6-2.76,3.56-3.5,5.68
	c-2.06-5.83-7.57-10.04-14.08-10.04H88.99c-6.51,0-12.02,4.21-14.09,10.04c-0.74-2.11-1.9-4.08-3.51-5.68
	c-2.8-2.79-6.68-4.38-10.64-4.36l-27.83,0.12C24.68,26.81,17.99,33.54,18,41.79l0.11,63.17c-0.01,2.07,0.33,20.94,14.8,35.48
	c10.12,10.16,24.07,15.31,41.47,15.31c11.53,0,21.2-2.17,28.82-6.45c7.63,4.27,17.3,6.45,28.83,6.45c17.4,0,31.35-5.15,41.47-15.32
	c0.02-0.02,0.04-0.04,0.06-0.07c0,0.02,0,0.37,0,0.37c0,8.27,6.73,15,15,15h26.56c2.6,0,5.06-0.72,7.26-1.96
	c2.21,1.22,4.68,1.96,7.23,1.96h161.07c9.62,0,24.16,0,36.36-5.6c15.23-6.99,22.96-20.63,22.96-40.53
	C450,97.45,446.32,87.16,439.58,79.44z" />
  <path class="logo-white" d="M270.89,78.88l-41.13,0.16v23.45c0,0,31.05,0,42.48,0c12.56,0,31.47-3.84,31.22-29.63
	c-0.26-25.78-18.55-30.94-29.49-30.94c-10.94,0-85.41-0.14-85.41-0.14v98.95h26.56l0.2-75.46l55.57,0.05c0,0,5.99,1.03,5.99,7.29
	C276.87,78.86,270.89,78.88,270.89,78.88z" />
  <path class="logo-white" d="M434.91,41.98c0,0-66.01-0.21-82.69-0.21c-29.18,0-31.51,23.5-31.51,23.5h114.2V41.98z" />
  <path class="logo-white" d="M145.58,41.64c0,0,0,54.86,0,58.48c0,3.62-1.46,14.13-13.97,14.13c-13.02,0-14.01-10.51-14.01-13.76
	c0-3.25-0.19-58.84-0.19-58.84H88.99c0,0-0.19,55.6-0.19,58.84c0,3.25-0.99,13.76-14.01,13.76c-12.51,0-13.96-10.5-13.96-14.13
	c0-3.62,0-58.48,0-58.48l-27.83,0.12l0.11,63.17c0,0-0.16,35.83,41.28,35.83c24.72,0,28.82-11.65,28.82-11.65
	s4.11,11.65,28.83,11.65c41.43,0,41.28-35.83,41.28-35.83l0.11-63.17L145.58,41.64z" />
  <path class="logo-white" d="M396.68,78.75c-14.39,0-76.41,0-76.41,0s3,23.82,27.79,23.82c18.75,0,53.05,0,53.05,0s7.73,0,7.73,7.54
	c0,7.56-7.73,7.31-7.73,7.31l-171.5,0.19v23.13c0,0,140.02,0,161.07,0c21.06,0,44.32-0.68,44.32-31.13
	C435,81.99,412.01,78.75,396.68,78.75z" />
</svg>
